<?xml version="1.0" encoding="UTF-8" ?>
<svg version="1.1" width="15" height="6" xmlns="http://www.w3.org/2000/svg" shape-rendering="crispEdges">
<rect x="4" y="0" width="1" height="1" fill="#FFFFFF" />
<rect x="3" y="1" width="1" height="1" fill="#FFFFFF" />
<rect x="4" y="1" width="1" height="1" fill="#FFC90E" />
<rect x="5" y="1" width="1" height="1" fill="#FFFFFF" />
<rect x="13" y="1" width="1" height="1" fill="#FFFFFF" />
<rect x="4" y="2" width="1" height="1" fill="#FFFFFF" />
<rect x="8" y="2" width="1" height="1" fill="#FFFFFF" />
<rect x="12" y="2" width="1" height="1" fill="#FFFFFF" />
<rect x="13" y="2" width="1" height="1" fill="#FFC90E" />
<rect x="14" y="2" width="1" height="1" fill="#FFFFFF" />
<rect x="1" y="3" width="1" height="1" fill="#FFFFFF" />
<rect x="7" y="3" width="1" height="1" fill="#FFFFFF" />
<rect x="8" y="3" width="1" height="1" fill="#FFC90E" />
<rect x="9" y="3" width="1" height="1" fill="#FFFFFF" />
<rect x="13" y="3" width="1" height="1" fill="#FFFFFF" />
<rect x="0" y="4" width="1" height="1" fill="#FFFFFF" />
<rect x="1" y="4" width="1" height="1" fill="#FFC90E" />
<rect x="2" y="4" width="1" height="1" fill="#FFFFFF" />
<rect x="8" y="4" width="1" height="1" fill="#FFFFFF" />
<rect x="1" y="5" width="1" height="1" fill="#FFFFFF" />
</svg>