<?xml version="1.0" encoding="UTF-8" ?>
<svg version="1.1" width="12" height="5" xmlns="http://www.w3.org/2000/svg" shape-rendering="crispEdges">
<rect x="1" y="0" width="1" height="1" fill="#2D9BD7" />
<rect x="0" y="1" width="1" height="1" fill="#2D9BD7" />
<rect x="1" y="1" width="1" height="1" fill="#FFC90E" />
<rect x="2" y="1" width="1" height="1" fill="#2D9BD7" />
<rect x="10" y="1" width="1" height="1" fill="#2D9BD7" />
<rect x="1" y="2" width="1" height="1" fill="#2D9BD7" />
<rect x="5" y="2" width="1" height="1" fill="#2D9BD7" />
<rect x="9" y="2" width="1" height="1" fill="#2D9BD7" />
<rect x="10" y="2" width="1" height="1" fill="#FFC90E" />
<rect x="11" y="2" width="1" height="1" fill="#2D9BD7" />
<rect x="4" y="3" width="1" height="1" fill="#2D9BD7" />
<rect x="5" y="3" width="1" height="1" fill="#FFC90E" />
<rect x="6" y="3" width="1" height="1" fill="#2D9BD7" />
<rect x="10" y="3" width="1" height="1" fill="#2D9BD7" />
<rect x="5" y="4" width="1" height="1" fill="#2D9BD7" />
</svg>