<?xml version="1.0" encoding="UTF-8" ?>
<svg version="1.1" width="42" height="7" xmlns="http://www.w3.org/2000/svg" shape-rendering="crispEdges">
<rect x="6" y="0" width="1" height="1" fill="#78C955" />
<rect x="9" y="0" width="1" height="1" fill="#78C955" />
<rect x="6" y="1" width="1" height="1" fill="#78C955" />
<rect x="9" y="1" width="1" height="1" fill="#78C955" />
<rect x="21" y="1" width="1" height="1" fill="#78C955" />
<rect x="24" y="1" width="1" height="1" fill="#78C955" />
<rect x="5" y="2" width="1" height="1" fill="#78C955" />
<rect x="8" y="2" width="1" height="1" fill="#78C955" />
<rect x="20" y="2" width="1" height="1" fill="#78C955" />
<rect x="23" y="2" width="1" height="1" fill="#78C955" />
<rect x="35" y="2" width="1" height="1" fill="#78C955" />
<rect x="38" y="2" width="1" height="1" fill="#78C955" />
<rect x="2" y="3" width="1" height="1" fill="#78C955" />
<rect x="5" y="3" width="1" height="1" fill="#60AB3F" />
<rect x="8" y="3" width="1" height="1" fill="#60AB3F" />
<rect x="17" y="3" width="1" height="1" fill="#78C955" />
<rect x="19" y="3" width="1" height="1" fill="#60AB3F" />
<rect x="22" y="3" width="1" height="1" fill="#78C955" />
<rect x="32" y="3" width="1" height="1" fill="#78C955" />
<rect x="34" y="3" width="1" height="1" fill="#78C955" />
<rect x="37" y="3" width="1" height="1" fill="#78C955" />
<rect x="2" y="4" width="1" height="1" fill="#60AB3F" />
<rect x="5" y="4" width="1" height="1" fill="#60AB3F" />
<rect x="8" y="4" width="1" height="1" fill="#60AB3F" />
<rect x="11" y="4" width="1" height="1" fill="#78C955" />
<rect x="16" y="4" width="1" height="1" fill="#60AB3F" />
<rect x="19" y="4" width="1" height="1" fill="#60AB3F" />
<rect x="22" y="4" width="1" height="1" fill="#60AB3F" />
<rect x="26" y="4" width="1" height="1" fill="#78C955" />
<rect x="31" y="4" width="1" height="1" fill="#78C955" />
<rect x="34" y="4" width="1" height="1" fill="#60AB3F" />
<rect x="36" y="4" width="1" height="1" fill="#60AB3F" />
<rect x="41" y="4" width="1" height="1" fill="#78C955" />
<rect x="2" y="5" width="1" height="1" fill="#60AB3F" />
<rect x="5" y="5" width="1" height="1" fill="#4A8B2E" />
<rect x="8" y="5" width="1" height="1" fill="#4A8B2E" />
<rect x="11" y="5" width="1" height="1" fill="#60AB3F" />
<rect x="16" y="5" width="1" height="1" fill="#60AB3F" />
<rect x="19" y="5" width="1" height="1" fill="#4A8B2E" />
<rect x="22" y="5" width="1" height="1" fill="#4A8B2E" />
<rect x="25" y="5" width="1" height="1" fill="#60AB3F" />
<rect x="30" y="5" width="1" height="1" fill="#60AB3F" />
<rect x="33" y="5" width="1" height="1" fill="#60AB3F" />
<rect x="36" y="5" width="1" height="1" fill="#60AB3F" />
<rect x="40" y="5" width="1" height="1" fill="#60AB3F" />
<rect x="2" y="6" width="1" height="1" fill="#4A8B2E" />
<rect x="5" y="6" width="1" height="1" fill="#4A8B2E" />
<rect x="8" y="6" width="1" height="1" fill="#4A8B2E" />
<rect x="11" y="6" width="1" height="1" fill="#4A8B2E" />
<rect x="16" y="6" width="1" height="1" fill="#4A8B2E" />
<rect x="19" y="6" width="1" height="1" fill="#4A8B2E" />
<rect x="22" y="6" width="1" height="1" fill="#4A8B2E" />
<rect x="25" y="6" width="1" height="1" fill="#4A8B2E" />
<rect x="30" y="6" width="1" height="1" fill="#4A8B2E" />
<rect x="33" y="6" width="1" height="1" fill="#4A8B2E" />
<rect x="36" y="6" width="1" height="1" fill="#4A8B2E" />
<rect x="39" y="6" width="1" height="1" fill="#4A8B2E" />
</svg>